<?xml version="1.0" encoding="UTF-8" standalone="no"?>
<!-- Created with Inkscape (http://www.inkscape.org/) -->

<svg
   version="1.1"
   id="svg1"
   width="313.47198"
   height="318.20624"
   viewBox="0 0 313.47198 318.20624"
   xmlns="http://www.w3.org/2000/svg"
   xmlns:svg="http://www.w3.org/2000/svg">
  <defs
     id="defs1">
    <clipPath
       clipPathUnits="userSpaceOnUse"
       id="clipPath17">
      <path
         d="M 0,825.655 H 1774.893 V 0 H 0 Z"
         transform="translate(-261.48361,-544.88691)"
         id="path17" />
    </clipPath>
    <clipPath
       clipPathUnits="userSpaceOnUse"
       id="clipPath19">
      <path
         d="M 0,825.655 H 1774.893 V 0 H 0 Z"
         transform="translate(-169.7502,-459.84741)"
         id="path19" />
    </clipPath>
    <clipPath
       clipPathUnits="userSpaceOnUse"
       id="clipPath21">
      <path
         d="M 0,825.655 H 1774.893 V 0 H 0 Z"
         transform="translate(-359.50021,-341.75121)"
         id="path21" />
    </clipPath>
    <clipPath
       clipPathUnits="userSpaceOnUse"
       id="clipPath23">
      <path
         d="M 0,825.655 H 1774.893 V 0 H 0 Z"
         transform="translate(-207.75951,-465.33511)"
         id="path23" />
    </clipPath>
    <clipPath
       clipPathUnits="userSpaceOnUse"
       id="clipPath25">
      <path
         d="M 0,825.655 H 1774.893 V 0 H 0 Z"
         transform="translate(-377.83861,-385.78441)"
         id="path25" />
    </clipPath>
    <clipPath
       clipPathUnits="userSpaceOnUse"
       id="clipPath27">
      <path
         d="M 0,825.655 H 1774.893 V 0 H 0 Z"
         transform="translate(-325.57491,-333.52071)"
         id="path27" />
    </clipPath>
  </defs>
  <g
     id="layer-MC0"
     transform="translate(-226.3336,-374.35748)">
    <path
       id="path1"
       d="M 0,0 H 48.085 V -12.431 H 15.982 v -15.71 H 43.44 V -39.615 H 15.982 v -16.53 H 48.631 V -68.576 H 0 Z"
       style="fill:#176fc1;fill-opacity:1;fill-rule:nonzero;stroke:none"
       transform="matrix(1.3333333,0,0,-1.3333333,348.6448,374.35747)" />
    <path
       id="path2"
       d="M 0,0 H 15.982 V -27.321 H 46.035 V 0 H 62.019 V -68.576 H 46.035 v 27.458 H 15.982 V -68.576 H 0 Z"
       style="fill:#176fc1;fill-opacity:1;fill-rule:nonzero;stroke:none"
       transform="matrix(1.3333333,0,0,-1.3333333,226.3336,487.74347)" />
    <path
       id="path3"
       d="M 0,0 -20.901,33.057 H -3.279 L 11.338,8.879 25.954,33.057 H 43.578 L 22.677,0 45.354,-35.519 H 27.593 L 11.338,-9.153 -4.782,-35.519 h -17.895 z"
       style="fill:#176fc1;fill-opacity:1;fill-rule:nonzero;stroke:none"
       transform="matrix(1.3333333,0,0,-1.3333333,479.3336,645.20507)" />
    <path
       id="path4"
       d="m 0,0 h -14 v 52.264 h 52.264 v -14 H 0 Z"
       style="fill:#176fc1;fill-opacity:1;fill-rule:nonzero;stroke:none"
       transform="matrix(1.3333333,0,0,-1.3333333,277.01267,480.42653)" />
    <path
       id="path5"
       d="m 0,0 h -14 v 117.814 h -38.264 v 14 H 0 Z"
       style="fill:#176fc1;fill-opacity:1;fill-rule:nonzero;stroke:none"
       transform="matrix(1.3333333,0,0,-1.3333333,503.7848,586.49413)" />
    <path
       id="path6"
       d="m 0,0 h -131.815 v 52.264 h 14 V 14 H 0 Z"
       style="fill:#176fc1;fill-opacity:1;fill-rule:nonzero;stroke:none"
       transform="matrix(1.3333333,0,0,-1.3333333,434.09987,656.17907)" />
    <path
       id="path16"
       d="M 0,0 H 48.085 V -12.431 H 15.982 v -15.71 H 43.44 V -39.615 H 15.982 v -16.53 H 48.631 V -68.576 H 0 Z"
       style="fill:#176fc1;fill-opacity:1;fill-rule:nonzero;stroke:none"
       transform="matrix(1.3333333,0,0,-1.3333333,348.6448,374.35747)"
       clip-path="url(#clipPath17)" />
    <path
       id="path18"
       d="M 0,0 H 15.982 V -27.321 H 46.035 V 0 H 62.019 V -68.576 H 46.035 v 27.458 H 15.982 V -68.576 H 0 Z"
       style="fill:#176fc1;fill-opacity:1;fill-rule:nonzero;stroke:none"
       transform="matrix(1.3333333,0,0,-1.3333333,226.3336,487.74347)"
       clip-path="url(#clipPath19)" />
    <path
       id="path20"
       d="M 0,0 -20.901,33.057 H -3.279 L 11.338,8.879 25.954,33.057 H 43.578 L 22.677,0 45.354,-35.519 H 27.593 L 11.338,-9.153 -4.782,-35.519 h -17.895 z"
       style="fill:#176fc1;fill-opacity:1;fill-rule:nonzero;stroke:none"
       transform="matrix(1.3333333,0,0,-1.3333333,479.3336,645.20507)"
       clip-path="url(#clipPath21)" />
    <path
       id="path22"
       d="m 0,0 h -14 v 52.264 h 52.264 v -14 H 0 Z"
       style="fill:#176fc1;fill-opacity:1;fill-rule:nonzero;stroke:none"
       transform="matrix(1.3333333,0,0,-1.3333333,277.01267,480.42653)"
       clip-path="url(#clipPath23)" />
    <path
       id="path24"
       d="m 0,0 h -14 v 117.814 h -38.264 v 14 H 0 Z"
       style="fill:#176fc1;fill-opacity:1;fill-rule:nonzero;stroke:none"
       transform="matrix(1.3333333,0,0,-1.3333333,503.7848,586.49413)"
       clip-path="url(#clipPath25)" />
    <path
       id="path26"
       d="m 0,0 h -131.815 v 52.264 h 14 V 14 H 0 Z"
       style="fill:#176fc1;fill-opacity:1;fill-rule:nonzero;stroke:none"
       transform="matrix(1.3333333,0,0,-1.3333333,434.09987,656.17907)"
       clip-path="url(#clipPath27)" />
  </g>
</svg>
