<?xml version="1.0" encoding="UTF-8" standalone="no"?>
<!-- Created with Inkscape (http://www.inkscape.org/) -->

<svg
   version="1.1"
   id="svg1"
   width="2366.52"
   height="1100.8733"
   viewBox="0 0 2366.52 1100.8733"
   sodipodi:docname="helbex logo.pdf"
   inkscape:version="1.3.2 (091e20ef0f, 2023-11-25)"
   xmlns:inkscape="http://www.inkscape.org/namespaces/inkscape"
   xmlns:sodipodi="http://sodipodi.sourceforge.net/DTD/sodipodi-0.dtd"
   xmlns="http://www.w3.org/2000/svg"
   xmlns:svg="http://www.w3.org/2000/svg">
  <defs
     id="defs1">
    <clipPath
       clipPathUnits="userSpaceOnUse"
       id="clipPath11">
      <path
         d="M 0,825.655 H 1774.893 V 0 H 0 Z"
         transform="translate(-1162.4637,-392.19161)"
         id="path11" />
    </clipPath>
    <clipPath
       clipPathUnits="userSpaceOnUse"
       id="clipPath13">
      <path
         d="M 0,825.655 H 1774.893 V 0 H 0 Z"
         transform="translate(-1242.8064,-518.66822)"
         id="path13" />
    </clipPath>
    <clipPath
       clipPathUnits="userSpaceOnUse"
       id="clipPath15">
      <path
         d="M 0,825.655 H 1774.893 V 0 H 0 Z"
         transform="translate(-1455.2049,-430.46551)"
         id="path15" />
    </clipPath>
    <clipPath
       clipPathUnits="userSpaceOnUse"
       id="clipPath17">
      <path
         d="M 0,825.655 H 1774.893 V 0 H 0 Z"
         transform="translate(-261.48361,-544.88691)"
         id="path17" />
    </clipPath>
    <clipPath
       clipPathUnits="userSpaceOnUse"
       id="clipPath19">
      <path
         d="M 0,825.655 H 1774.893 V 0 H 0 Z"
         transform="translate(-169.7502,-459.84741)"
         id="path19" />
    </clipPath>
    <clipPath
       clipPathUnits="userSpaceOnUse"
       id="clipPath21">
      <path
         d="M 0,825.655 H 1774.893 V 0 H 0 Z"
         transform="translate(-359.50021,-341.75121)"
         id="path21" />
    </clipPath>
    <clipPath
       clipPathUnits="userSpaceOnUse"
       id="clipPath23">
      <path
         d="M 0,825.655 H 1774.893 V 0 H 0 Z"
         transform="translate(-207.75951,-465.33511)"
         id="path23" />
    </clipPath>
    <clipPath
       clipPathUnits="userSpaceOnUse"
       id="clipPath25">
      <path
         d="M 0,825.655 H 1774.893 V 0 H 0 Z"
         transform="translate(-377.83861,-385.78441)"
         id="path25" />
    </clipPath>
    <clipPath
       clipPathUnits="userSpaceOnUse"
       id="clipPath27">
      <path
         d="M 0,825.655 H 1774.893 V 0 H 0 Z"
         transform="translate(-325.57491,-333.52071)"
         id="path27" />
    </clipPath>
  </defs>
  <sodipodi:namedview
     id="namedview1"
     pagecolor="#ffffff"
     bordercolor="#000000"
     borderopacity="0.25"
     inkscape:showpageshadow="2"
     inkscape:pageopacity="0.0"
     inkscape:pagecheckerboard="0"
     inkscape:deskcolor="#d1d1d1"
     inkscape:zoom="0.55440055"
     inkscape:cx="1183.26"
     inkscape:cy="550.14376"
     inkscape:window-width="1900"
     inkscape:window-height="1016"
     inkscape:window-x="0"
     inkscape:window-y="0"
     inkscape:window-maximized="1"
     inkscape:current-layer="layer-MC0">
    <inkscape:page
       x="0"
       y="0"
       inkscape:label="1"
       id="page1"
       width="2366.52"
       height="1100.8733"
       margin="408.31067 264.89334 374.35733 226.33333"
       bleed="0" />
  </sodipodi:namedview>
  <g
     id="layer-MC0"
     inkscape:groupmode="layer"
     inkscape:label="Layer 1">
    <path
       id="path1"
       d="M 0,0 H 48.085 V -12.431 H 15.982 v -15.71 H 43.44 V -39.615 H 15.982 v -16.53 H 48.631 V -68.576 H 0 Z"
       style="fill:#176fc1;fill-opacity:1;fill-rule:nonzero;stroke:none"
       transform="matrix(1.3333333,0,0,-1.3333333,348.6448,374.35747)" />
    <path
       id="path2"
       d="M 0,0 H 15.982 V -27.321 H 46.035 V 0 H 62.019 V -68.576 H 46.035 v 27.458 H 15.982 V -68.576 H 0 Z"
       style="fill:#176fc1;fill-opacity:1;fill-rule:nonzero;stroke:none"
       transform="matrix(1.3333333,0,0,-1.3333333,226.3336,487.74347)" />
    <path
       id="path3"
       d="M 0,0 -20.901,33.057 H -3.279 L 11.338,8.879 25.954,33.057 H 43.578 L 22.677,0 45.354,-35.519 H 27.593 L 11.338,-9.153 -4.782,-35.519 h -17.895 z"
       style="fill:#176fc1;fill-opacity:1;fill-rule:nonzero;stroke:none"
       transform="matrix(1.3333333,0,0,-1.3333333,479.3336,645.20507)" />
    <path
       id="path4"
       d="m 0,0 h -14 v 52.264 h 52.264 v -14 H 0 Z"
       style="fill:#176fc1;fill-opacity:1;fill-rule:nonzero;stroke:none"
       transform="matrix(1.3333333,0,0,-1.3333333,277.01267,480.42653)" />
    <path
       id="path5"
       d="m 0,0 h -14 v 117.814 h -38.264 v 14 H 0 Z"
       style="fill:#176fc1;fill-opacity:1;fill-rule:nonzero;stroke:none"
       transform="matrix(1.3333333,0,0,-1.3333333,503.7848,586.49413)" />
    <path
       id="path6"
       d="m 0,0 h -131.815 v 52.264 h 14 V 14 H 0 Z"
       style="fill:#176fc1;fill-opacity:1;fill-rule:nonzero;stroke:none"
       transform="matrix(1.3333333,0,0,-1.3333333,434.09987,656.17907)" />
    <path
       id="path7"
       d="M 0,0 H 42.644 V -72.896 H 122.83 V 0 h 42.648 V -182.972 H 122.83 v 73.261 H 42.644 v -73.261 H 0 Z"
       style="fill:#176fc1;fill-opacity:1;fill-rule:nonzero;stroke:none"
       transform="matrix(1.3333333,0,0,-1.3333333,695.71587,409.31573)" />
    <path
       id="path8"
       d="M 0,0 H 128.3 V -33.167 H 42.644 v -41.917 h 73.26 V -105.7 h -73.26 v -44.104 h 87.111 v -33.168 H 0 Z"
       style="fill:#176fc1;fill-opacity:1;fill-rule:nonzero;stroke:none"
       transform="matrix(1.3333333,0,0,-1.3333333,967.154,409.31573)" />
    <path
       id="path9"
       d="m 0,0 h 42.644 v -146.157 h 76.543 v -36.815 H 0 Z"
       style="fill:#176fc1;fill-opacity:1;fill-rule:nonzero;stroke:none"
       transform="matrix(1.3333333,0,0,-1.3333333,1190.7125,409.31573)" />
    <path
       id="path10"
       d="M 0,0 C 0,13.123 -10.572,23.327 -24.423,23.327 H -69.981 V -25.15 h 45.194 C -10.572,-25.15 0,-14.578 0,0 m -8.021,72.169 c 0,12.392 -9.476,22.6 -21.868,22.6 h -40.092 v -43.74 h 40.092 c 12.392,0 21.868,8.385 21.868,21.14 m -104.241,54.308 h 84.561 c 37.178,0 60.141,-18.953 60.141,-49.206 0,-16.766 -10.572,-32.072 -22.6,-37.178 17.498,-5.466 32.44,-22.232 32.44,-43.371 0,-36.815 -30.252,-53.217 -62.328,-53.217 h -92.214 z"
       style="fill:#176fc1;fill-opacity:1;fill-rule:nonzero;stroke:none"
       transform="matrix(1.3333333,0,0,-1.3333333,1549.9515,577.9512)"
       clip-path="url(#clipPath11)" />
    <path
       id="path12"
       d="M 0,0 H 128.3 V -33.167 H 42.644 v -41.917 h 73.261 V -105.7 H 42.644 v -44.104 h 87.111 v -33.168 H 0 Z"
       style="fill:#176fc1;fill-opacity:1;fill-rule:nonzero;stroke:none"
       transform="matrix(1.3333333,0,0,-1.3333333,1657.0752,409.31573)"
       clip-path="url(#clipPath13)" />
    <path
       id="path14"
       d="M 0,0 -55.767,88.203 H -8.749 L 30.252,23.691 69.25,88.203 h 47.022 L 60.505,0 121.011,-94.769 H 73.625 l -43.373,70.346 -43.011,-70.346 h -47.746 z"
       style="fill:#176fc1;fill-opacity:1;fill-rule:nonzero;stroke:none"
       transform="matrix(1.3333333,0,0,-1.3333333,1940.2731,526.91933)"
       clip-path="url(#clipPath15)" />
    <path
       id="path16"
       d="M 0,0 H 48.085 V -12.431 H 15.982 v -15.71 H 43.44 V -39.615 H 15.982 v -16.53 H 48.631 V -68.576 H 0 Z"
       style="fill:#176fc1;fill-opacity:1;fill-rule:nonzero;stroke:none"
       transform="matrix(1.3333333,0,0,-1.3333333,348.6448,374.35747)"
       clip-path="url(#clipPath17)" />
    <path
       id="path18"
       d="M 0,0 H 15.982 V -27.321 H 46.035 V 0 H 62.019 V -68.576 H 46.035 v 27.458 H 15.982 V -68.576 H 0 Z"
       style="fill:#176fc1;fill-opacity:1;fill-rule:nonzero;stroke:none"
       transform="matrix(1.3333333,0,0,-1.3333333,226.3336,487.74347)"
       clip-path="url(#clipPath19)" />
    <path
       id="path20"
       d="M 0,0 -20.901,33.057 H -3.279 L 11.338,8.879 25.954,33.057 H 43.578 L 22.677,0 45.354,-35.519 H 27.593 L 11.338,-9.153 -4.782,-35.519 h -17.895 z"
       style="fill:#176fc1;fill-opacity:1;fill-rule:nonzero;stroke:none"
       transform="matrix(1.3333333,0,0,-1.3333333,479.3336,645.20507)"
       clip-path="url(#clipPath21)" />
    <path
       id="path22"
       d="m 0,0 h -14 v 52.264 h 52.264 v -14 H 0 Z"
       style="fill:#176fc1;fill-opacity:1;fill-rule:nonzero;stroke:none"
       transform="matrix(1.3333333,0,0,-1.3333333,277.01267,480.42653)"
       clip-path="url(#clipPath23)" />
    <path
       id="path24"
       d="m 0,0 h -14 v 117.814 h -38.264 v 14 H 0 Z"
       style="fill:#176fc1;fill-opacity:1;fill-rule:nonzero;stroke:none"
       transform="matrix(1.3333333,0,0,-1.3333333,503.7848,586.49413)"
       clip-path="url(#clipPath25)" />
    <path
       id="path26"
       d="m 0,0 h -131.815 v 52.264 h 14 V 14 H 0 Z"
       style="fill:#176fc1;fill-opacity:1;fill-rule:nonzero;stroke:none"
       transform="matrix(1.3333333,0,0,-1.3333333,434.09987,656.17907)"
       clip-path="url(#clipPath27)" />
  </g>
</svg>
